<svg viewBox="-1 -1 629 753" id="svg_floorplan" xmlns="http://www.w3.org/2000/svg">
    <defs>
        <style type="text/css"><![CDATA[>
            text {
                fill:#000000;
                stroke:none;
            }
            .room {
                fill:#ffffff;
                stroke:#000000;
                stroke-width:2;
            }
            .lightbulbScrew {
                fill:#808080;
                fill-opacity:1;
                stroke:none;
            }
            .lightbulbColor {
                fill:#ffd43e;
                stroke:none;
            }
        ]]></style>
    </defs>
    <g id="allRooms">
        <g>
            <rect
                class="room"
                id="svg_spare_bedroom"
                width="288"
                height="400"
                x="339"
                y="200" />
            <text
                x="483"
                y="220">Spare bedroom</text>
            <text
                text-anchor="middle"
                x="540"
                y="400"
                id="spare_bedroomTemperature"></text>
            <text
                text-anchor="middle"
                x="540"
                y="420"
                id="spare_bedroomIcon"></text>
        </g>
        <g>
            <rect
                class="room"
                id="svg_bathroom"
                width="224"
                height="200"
                x="0"
                y="0" />
            <text
                text-anchor="middle"
                x="112"
                y="20">Bathroom</text>
            <text
                text-anchor="middle"
                x="112"
                y="100"
                id="bathroomTemperature"></text>
            <text
                text-anchor="middle"
                x="112"
                y="120"
                id="bathroomIcon"></text>
        </g>
        <g>
            <rect
                class="room"
                id="svg_kitchen"
                width="224"
                height="551"
                x="0"
                y="200" />
            <text
                text-anchor="middle"
                x="112"
                y="220">Kitchen</text>
            <!-- <g transform="translate(112,300)" id="kitchenLightbulb" style="visibility:hidden"> -->
            <g transform="translate(25,223)" id="kitchenLightbulb" style="visibility:hidden">
                <path
                    class="lightbulbColor"
                    d="m 0.03326977,-22.326176 c -0.43869993,0 -0.86438678,0.02035 -1.24463897,0.05521 -8.4177541,0.77153 -14.4694968,9.348506 -12.0252398,17.0427079 0.669772,2.1083577 1.566704,3.7423603 4.4265512,8.0640036 2.9452437,4.450688 3.1321068,4.8827656 3.2081544,7.4131785 0.089763,2.986746 -0.1421572,2.866996 5.63517317,2.866996 5.77732713,0 5.54541313,0.119751 5.63517463,-2.866996 C 5.7444874,7.7185035 5.9313552,7.2864258 8.8765988,2.8357378 11.736446,-1.4859055 12.633378,-3.1199081 13.30315,-5.2282657 15.747407,-12.922468 9.6956628,-21.499444 1.2779102,-22.270976 c -0.3802521,-0.03485 -0.80593895,-0.05521 -1.24464043,-0.05521 z"
                    id="kitchenLightbulbColour" />
                <path
                    class="lightbulbScrew"
                    d="m 2.2334243,24.86136 c 0.093399,-0.165234 0.6441449,0.02578 1.4042686,-1.629054 0.3603263,-0.784448 0.5759005,-0.766281 1.228352,-1.027998 0.5450902,-0.218656 0.9608529,-0.61521 0.9608529,-1.458565 0,-0.606944 -0.132477,-0.945467 -0.132477,-1.291154 0,-0.821873 0.132477,-0.310402 0.132477,-1.324634 0,-1.359866 -0.5556653,-1.692039 -1.5733096,-2.236983 h -8.4406338 c -1.0176459,0.544944 -1.5733112,0.877117 -1.5733112,2.236983 0,1.014232 0.1326634,0.502761 0.1326634,1.324634 0,0.345687 -0.1326634,0.68421 -0.1326634,1.291154 0,0.843355 0.4157612,1.239909 0.9608544,1.458565 0.6524485,0.261717 0.8680243,0.24355 1.2283505,1.027998 0.7601253,1.654833 1.3108759,1.46382 1.4042686,1.629054 z"
                />
            </g>
            <!-- <g transform="translate(112,600)" id="living_roomLightbulb" style="visibility:hidden"> -->
            <g transform="translate(70,223)" id="living_roomLightbulb" style="visibility:hidden">
                <path
                    class="lightbulbColor"
                    d="m 0.03326977,-22.326176 c -0.43869993,0 -0.86438678,0.02035 -1.24463897,0.05521 -8.4177541,0.77153 -14.4694968,9.348506 -12.0252398,17.0427079 0.669772,2.1083577 1.566704,3.7423603 4.4265512,8.0640036 2.9452437,4.450688 3.1321068,4.8827656 3.2081544,7.4131785 0.089763,2.986746 -0.1421572,2.866996 5.63517317,2.866996 5.77732713,0 5.54541313,0.119751 5.63517463,-2.866996 C 5.7444874,7.7185035 5.9313552,7.2864258 8.8765988,2.8357378 11.736446,-1.4859055 12.633378,-3.1199081 13.30315,-5.2282657 15.747407,-12.922468 9.6956628,-21.499444 1.2779102,-22.270976 c -0.3802521,-0.03485 -0.80593895,-0.05521 -1.24464043,-0.05521 z"
                    id="living_roomLightbulbColour" />
                <path
                    class="lightbulbScrew"
                    d="m 2.2334243,24.86136 c 0.093399,-0.165234 0.6441449,0.02578 1.4042686,-1.629054 0.3603263,-0.784448 0.5759005,-0.766281 1.228352,-1.027998 0.5450902,-0.218656 0.9608529,-0.61521 0.9608529,-1.458565 0,-0.606944 -0.132477,-0.945467 -0.132477,-1.291154 0,-0.821873 0.132477,-0.310402 0.132477,-1.324634 0,-1.359866 -0.5556653,-1.692039 -1.5733096,-2.236983 h -8.4406338 c -1.0176459,0.544944 -1.5733112,0.877117 -1.5733112,2.236983 0,1.014232 0.1326634,0.502761 0.1326634,1.324634 0,0.345687 -0.1326634,0.68421 -0.1326634,1.291154 0,0.843355 0.4157612,1.239909 0.9608544,1.458565 0.6524485,0.261717 0.8680243,0.24355 1.2283505,1.027998 0.7601253,1.654833 1.3108759,1.46382 1.4042686,1.629054 z"
                />
            </g>
            <text
                text-anchor="middle"
                x="112"
                y="475"
                id="kitchenTemperature"></text>
            <text
                text-anchor="middle"
                x="112"
                y="495"
                id="kitchenIcon"></text>
        </g>
        <g>
            <rect
                class="room"
                id="svg_bedroom"
                width="230"
                height="300"
                x="224"
                y="300" />
            <text
                text-anchor="middle"
                x="339"
                y="320">Bedroom</text>
            <g transform="translate(339,380)" id="bedroomLightbulb" style="visibility:hidden">
                <path
                    class="lightbulbColor"
                    d="m 0.03326977,-22.326176 c -0.43869993,0 -0.86438678,0.02035 -1.24463897,0.05521 -8.4177541,0.77153 -14.4694968,9.348506 -12.0252398,17.0427079 0.669772,2.1083577 1.566704,3.7423603 4.4265512,8.0640036 2.9452437,4.450688 3.1321068,4.8827656 3.2081544,7.4131785 0.089763,2.986746 -0.1421572,2.866996 5.63517317,2.866996 5.77732713,0 5.54541313,0.119751 5.63517463,-2.866996 C 5.7444874,7.7185035 5.9313552,7.2864258 8.8765988,2.8357378 11.736446,-1.4859055 12.633378,-3.1199081 13.30315,-5.2282657 15.747407,-12.922468 9.6956628,-21.499444 1.2779102,-22.270976 c -0.3802521,-0.03485 -0.80593895,-0.05521 -1.24464043,-0.05521 z"
                    id="bedroomLightbulbColour" />
                <path
                    class="lightbulbScrew"
                    d="m 2.2334243,24.86136 c 0.093399,-0.165234 0.6441449,0.02578 1.4042686,-1.629054 0.3603263,-0.784448 0.5759005,-0.766281 1.228352,-1.027998 0.5450902,-0.218656 0.9608529,-0.61521 0.9608529,-1.458565 0,-0.606944 -0.132477,-0.945467 -0.132477,-1.291154 0,-0.821873 0.132477,-0.310402 0.132477,-1.324634 0,-1.359866 -0.5556653,-1.692039 -1.5733096,-2.236983 h -8.4406338 c -1.0176459,0.544944 -1.5733112,0.877117 -1.5733112,2.236983 0,1.014232 0.1326634,0.502761 0.1326634,1.324634 0,0.345687 -0.1326634,0.68421 -0.1326634,1.291154 0,0.843355 0.4157612,1.239909 0.9608544,1.458565 0.6524485,0.261717 0.8680243,0.24355 1.2283505,1.027998 0.7601253,1.654833 1.3108759,1.46382 1.4042686,1.629054 z"
                />
            </g>
            <g transform="translate(430,570)" id="bedroom_lampLightbulb" style="visibility:hidden">
                <path
                    class="lightbulbColor"
                    d="m 0.03326977,-22.326176 c -0.43869993,0 -0.86438678,0.02035 -1.24463897,0.05521 -8.4177541,0.77153 -14.4694968,9.348506 -12.0252398,17.0427079 0.669772,2.1083577 1.566704,3.7423603 4.4265512,8.0640036 2.9452437,4.450688 3.1321068,4.8827656 3.2081544,7.4131785 0.089763,2.986746 -0.1421572,2.866996 5.63517317,2.866996 5.77732713,0 5.54541313,0.119751 5.63517463,-2.866996 C 5.7444874,7.7185035 5.9313552,7.2864258 8.8765988,2.8357378 11.736446,-1.4859055 12.633378,-3.1199081 13.30315,-5.2282657 15.747407,-12.922468 9.6956628,-21.499444 1.2779102,-22.270976 c -0.3802521,-0.03485 -0.80593895,-0.05521 -1.24464043,-0.05521 z"
                    id="bedroom_lampLightbulbColour" />
                <path
                    class="lightbulbScrew"
                    d="m 2.2334243,24.86136 c 0.093399,-0.165234 0.6441449,0.02578 1.4042686,-1.629054 0.3603263,-0.784448 0.5759005,-0.766281 1.228352,-1.027998 0.5450902,-0.218656 0.9608529,-0.61521 0.9608529,-1.458565 0,-0.606944 -0.132477,-0.945467 -0.132477,-1.291154 0,-0.821873 0.132477,-0.310402 0.132477,-1.324634 0,-1.359866 -0.5556653,-1.692039 -1.5733096,-2.236983 h -8.4406338 c -1.0176459,0.544944 -1.5733112,0.877117 -1.5733112,2.236983 0,1.014232 0.1326634,0.502761 0.1326634,1.324634 0,0.345687 -0.1326634,0.68421 -0.1326634,1.291154 0,0.843355 0.4157612,1.239909 0.9608544,1.458565 0.6524485,0.261717 0.8680243,0.24355 1.2283505,1.027998 0.7601253,1.654833 1.3108759,1.46382 1.4042686,1.629054 z"
                />
            </g>
            <text
                text-anchor="middle"
                x="339"
                y="450"
                id="bedroomTemperature"></text>
            <text
                text-anchor="middle"
                x="339"
                y="470"
                id="bedroomIcon"></text>
        </g>
        <g>
            <rect
                class="room"
                id="svg_hall"
                width="115"
                height="300"
                x="224"
                y="0" />
            <text
                text-anchor="middle"
                x="281.5"
                y="20">Hall</text>
            <text 
                text-anchor="middle"
                x="281.5"
                y="150"
                id="hallTemperature"></text>
            <text
                text-anchor="middle"
                x="281.5"
                y="170"
                id="hallIcon"></text>
        </g>
        <g>
            <rect
                class="room"
                id="svg_closet"
                width="115"
                height="64"
                x="339"
                y="64" />
            <text
                text-anchor="middle"
                x="396.5"
                y="84">Closet</text>
        </g>
        <g>
            <path
                class="room"
                d="M454 0 H 627 V 200 H 339 v -75 h 115 z"
                id="svg_study"
                nodetypes="ccccccc" />
            <text
                text-anchor="middle"
                x="540"
                y="20">Study</text>
            <text
                text-anchor="middle"
                x="540"
                y="100"
                id="studyTemperature"></text>
            <text
                text-anchor="middle"
                x="540"
                y="120"
                id="studyIcon"></text>
        </g>
    </g>
</svg>