<svg viewBox="-1 -1 629 753" id="svg_floorplan" xmlns="http://www.w3.org/2000/svg">
    <defs>
        <style type="text/css"><![CDATA[>
            text {
                fill:#000000;
                stroke:none;
            }
            .room {
                fill:#ffffff;
                stroke:#000000;
                stroke-width:2;
            }
            .lightbulbScrew {
                fill:#808080;
                fill-opacity:1;
                stroke:none;
            }
            .lightbulbOutline {
                stroke:none;
                fill:#000000;
            }
            .lightbulbColor {
                fill:#ffff00;
                stroke:none;
            }
            .shift {
                transform: translate(-0.40753672px, -1.0138529px);
            }
            .matrixTransform {
                transform: matrix(2.0972637,0,0,2.0972637,0.74860255,1.9997674);
            }
        ]]></style>
    </defs>
    <g id="allRooms">
        <g>
            <rect
                class="room"
                id="svg_spare_bedroom"
                width="288"
                height="400"
                x="339"
                y="200" />
            <text
                x="483"
                y="220">Spare bedroom</text>

            <g transform="translate(532,360)"  id="spare_bedroomLightbulb" style="visibility:hidden">
                <g class="matrixTransform">
                    <g class="shift">
                        <path
                            d="m 4.1409905,0.0603403 q 0.5632731,0 1.085205,0.1498616 0.521932,0.144694 0.9715169,0.4134115 0.4547526,0.2635498 0.8268229,0.6356201 0.3772376,0.3720703 0.6407876,0.8268229 0.268718,0.4547525 0.413412,0.9766845 0.144694,0.5219319 0.144694,1.085205 0,0.8319906 -0.294556,1.5761312 Q 7.6343169,6.46305 7.086547,7.0883348 6.941853,7.2536994 6.7816561,7.3983934 6.6266268,7.5379198 6.4715975,7.6877814 6.3682446,7.7859667 6.2803947,7.8893195 q -0.08785,0.098185 -0.1498616,0.2067057 -0.062012,0.1085206 -0.098185,0.232544 -0.036174,0.1240233 -0.036174,0.2738853 v 2.0412185 q 0,0.170532 -0.062012,0.325561 -0.056844,0.160197 -0.1653646,0.284221 Q 5.6654447,11.377478 5.515583,11.46016 5.370889,11.54284 5.2003568,11.563513 L 4.8179517,11.945919 H 3.4588616 L 3.076456,11.563513 Q 2.9059238,11.542843 2.7560621,11.46016 2.6113681,11.377478 2.5028476,11.253455 2.3994948,11.129431 2.337483,10.969234 2.280639,10.814205 2.280639,10.643673 V 8.6024545 q 0,-0.149862 -0.036173,-0.2738853 Q 2.208292,8.2045458 2.1462802,8.0960252 2.0842685,7.9875047 1.9964186,7.8893195 1.9137363,7.7859667 1.8103834,7.6877814 1.6553541,7.5379198 1.4951572,7.3983934 1.3401279,7.2536994 1.1954339,7.0883348 0.6476637,6.46305 0.3479405,5.7240771 0.0533848,4.9799365 0.0533848,4.1479459 q 0,-0.5632731 0.144694,-1.085205 Q 0.3479405,2.5408089 0.6114902,2.0860564 0.8802077,1.6313038 1.252278,1.2592335 1.6243483,0.8871632 2.0791009,0.6236134 2.5338535,0.3548959 3.0557854,0.2102019 3.5777174,0.0603403 4.1409905,0.0603403 Z m 1.1110432,8.5421142 q 0,-0.2377118 0.051677,-0.4392499 Q 5.3553866,7.9564989 5.4535718,7.780799 5.551757,7.5999315 5.6861157,7.4397346 5.8256421,7.27437 5.9961743,7.1193407 6.3320711,6.8092821 6.6059562,6.4837206 6.8798413,6.1581591 7.0710441,5.8015917 7.2674145,5.4398567 7.3707674,5.0316129 7.4792879,4.6233691 7.4792879,4.1479459 q 0,-0.6924641 -0.2635498,-1.302246 Q 6.9573559,2.235918 6.5026034,1.7863331 6.0478508,1.3315805 5.4380689,1.0680307 4.8334546,0.8044809 4.1409905,0.8044809 q -0.4650879,0 -0.8940023,0.1188558 Q 2.8232415,1.0421925 2.4511712,1.2592335 2.0791009,1.4762745 1.7742099,1.7811654 1.469319,2.0860564 1.252278,2.4581267 1.035237,2.830197 0.9163812,3.2591113 0.7975254,3.6880257 0.7975254,4.1479459 q 0,0.4702556 0.1033529,0.8784994 0.1085205,0.4082438 0.2997233,0.7699788 0.1963704,0.361735 0.4702555,0.6872965 0.2738851,0.3255615 0.6097819,0.6356201 0.1705322,0.1550293 0.3048909,0.3203939 0.1395264,0.1601969 0.2325439,0.3410644 0.098185,0.1756999 0.1498617,0.3824056 0.056844,0.2015381 0.056844,0.4392499 H 3.3968499 V 7.1193407 q -0.1498617,0 -0.2635498,-0.1085205 -0.1085205,-0.1085205 -0.1085205,-0.2635498 0,-0.1550293 0.1085205,-0.2635498 0.1085205,-0.1085205 0.2635498,-0.1085205 0.1550293,0 0.2635498,0.1085205 0.1085205,0.1085205 0.1085205,0.2635498 h 0.7389729 q 0,-0.1498616 0.1085205,-0.2583821 0.1085205,-0.1136882 0.2635498,-0.1136882 0.1550293,0 0.2635498,0.1085205 0.1085205,0.1085205 0.1085205,0.2635498 0,0.1550293 -0.1136881,0.2635498 -0.1085205,0.1085205 -0.2583822,0.1085205 v 1.4831138 z m 0,2.0412185 q 0,-0.124024 -0.082682,-0.15503 -0.082682,-0.02584 -0.1808675,-0.02584 H 4.8799634 v -0.37207 h 0.1085205 q 0.098185,0 0.1808675,-0.03101 0.082682,-0.02584 0.082682,-0.1550285 0,-0.124024 -0.077515,-0.155029 -0.077515,-0.03101 -0.1756999,-0.03101 H 4.8799634 V 9.3465945 H 3.3968499 v 0.372071 H 3.2883294 q -0.098185,0 -0.1808675,0.02584 -0.082682,0.03101 -0.082682,0.160197 0,0.1240225 0.077515,0.1550285 0.077515,0.03101 0.1756999,0.03101 h 0.1188551 v 0.37207 h -0.067179 q -0.051676,0 -0.1085205,0 -0.051676,0.0052 -0.098185,0.02067 -0.041341,0.02067 -0.072347,0.05684 -0.025838,0.03617 -0.025838,0.103353 0,0.124023 0.077515,0.155029 0.077515,0.03101 0.1756999,0.03101 h 0.1188546 l 0.3720703,0.37207 h 0.7389729 l 0.3720703,-0.37207 h 0.1085205 q 0.098185,0 0.1808675,-0.03101 0.082682,-0.02584 0.082682,-0.155029 z M 3.7689202,7.1193407 V 8.6024545 H 4.5078931 V 7.1193407 Z"
                            class="lightbulbOutline"/>
                        <path
                            d="m 5.2520326,10.643674 q 0,-0.124024 -0.08268,-0.15503 -0.08268,-0.02584 -0.180868,-0.02584 h -0.108521 v -0.37207 h 0.108521 q 0.09819,0 0.180867,-0.03101 0.08268,-0.02584 0.08268,-0.1550295 0,-0.124024 -0.07752,-0.155029 -0.07751,-0.03101 -0.175699,-0.03101 h -0.118856 v -0.372061 h -1.483113 v 0.372071 h -0.108521 q -0.09818,0 -0.180867,0.02584 -0.08268,0.03101 -0.08268,0.160197 0,0.1240235 0.07752,0.1550295 0.07752,0.03101 0.1757,0.03101 h 0.118855 v 0.37207 h -0.06718 q -0.05168,0 -0.108521,0 -0.05168,0.0052 -0.09818,0.02067 -0.04134,0.02067 -0.07235,0.05684 -0.02584,0.03617 -0.02584,0.103353 0,0.124023 0.07752,0.155029 0.07752,0.03101 0.1757,0.03101 h 0.118855 l 0.37207,0.37207 h 0.738973 l 0.37207,-0.37207 h 0.108521 q 0.09819,0 0.180867,-0.03101 0.08268,-0.02584 0.08268,-0.155029 z"
                            class="lightbulbScrew"/>
                    </g>
                    <g id="spare_bedroomLightbulbColour" class="lightbulbColor">
                        <path
                            transform="translate(-0.40753672,-1.0138529)"
                            d="m 5.2520374,8.6024545 q 0,-0.2377121 0.051677,-0.4392499 Q 5.3553904,7.9564989 5.4535755,7.780799 5.5517605,7.5999315 5.6861194,7.4397346 5.8256458,7.27437 5.996178,7.1193407 6.3320748,6.8092821 6.6059599,6.4837206 6.879845,6.1581591 7.0710478,5.8015917 7.2674182,5.4398567 7.3707711,5.0316129 q 0.108521,-0.4082438 0.108521,-0.883667 0,-0.6924641 -0.2635503,-1.302246 Q 6.9573598,2.235918 6.5026072,1.7863331 6.0478547,1.3315805 5.4380728,1.0680307 4.8334584,0.80448092 4.1409944,0.80448092 q -0.465088,0 -0.894002,0.1188558 -0.423747,0.11885578 -0.795817,0.33589678 -0.372071,0.217041 -0.676962,0.5219319 -0.30489,0.304891 -0.521931,0.6769613 -0.217041,0.3720703 -0.335897,0.8009846 -0.118856,0.4289144 -0.118856,0.8888346 0,0.4702556 0.103353,0.8784994 0.10852,0.4082438 0.299723,0.7699788 0.196371,0.361735 0.470256,0.6872965 0.273885,0.3255615 0.609782,0.6356201 0.170532,0.1550293 0.30489,0.3203939 0.139527,0.1601969 0.232544,0.3410644 0.09819,0.1756999 0.149862,0.3824056 0.05684,0.2015378 0.05684,0.4392499 h 0.37207 V 7.1193407 q -0.149861,0 -0.263549,-0.1085205 -0.108521,-0.1085205 -0.108521,-0.2635498 0,-0.1550293 0.108521,-0.2635498 0.10852,-0.1085205 0.263549,-0.1085205 0.15503,0 0.26355,0.1085205 0.108521,0.1085205 0.108521,0.2635498 h 0.738973 q 0,-0.1498616 0.10852,-0.2583821 0.108521,-0.1136882 0.26355,-0.1136882 0.155029,0 0.26355,0.1085205 0.10852,0.1085205 0.10852,0.2635498 0,0.1550293 -0.113688,0.2635498 -0.10852,0.1085205 -0.258382,0.1085205 v 1.4831138 z"
                        />
                        <rect
                            width="0.7389729"
                            height="1.4831138"
                            x="3.3613834"
                            y="6.1054878" />
                    </g>
                </g>
            </g>

            <text
                text-anchor="middle"
                x="540"
                y="400"
                id="spare_bedroomTemperature"></text>
            <text
                text-anchor="middle"
                x="540"
                y="420"
                id="spare_bedroomIcon"></text>
        </g>
        <g>
            <rect
                class="room"
                id="svg_bathroom"
                width="224"
                height="200"
                x="0"
                y="0" />
            <text
                text-anchor="middle"
                x="112"
                y="20">Bathroom</text>
            <g transform="translate(104,60)" id="bathroomLightbulb" style="visibility:hidden">
                <g class="matrixTransform">
                    <g class="shift">
                        <path
                            d="m 4.1409905,0.0603403 q 0.5632731,0 1.085205,0.1498616 0.521932,0.144694 0.9715169,0.4134115 0.4547526,0.2635498 0.8268229,0.6356201 0.3772376,0.3720703 0.6407876,0.8268229 0.268718,0.4547525 0.413412,0.9766845 0.144694,0.5219319 0.144694,1.085205 0,0.8319906 -0.294556,1.5761312 Q 7.6343169,6.46305 7.086547,7.0883348 6.941853,7.2536994 6.7816561,7.3983934 6.6266268,7.5379198 6.4715975,7.6877814 6.3682446,7.7859667 6.2803947,7.8893195 q -0.08785,0.098185 -0.1498616,0.2067057 -0.062012,0.1085206 -0.098185,0.232544 -0.036174,0.1240233 -0.036174,0.2738853 v 2.0412185 q 0,0.170532 -0.062012,0.325561 -0.056844,0.160197 -0.1653646,0.284221 Q 5.6654447,11.377478 5.515583,11.46016 5.370889,11.54284 5.2003568,11.563513 L 4.8179517,11.945919 H 3.4588616 L 3.076456,11.563513 Q 2.9059238,11.542843 2.7560621,11.46016 2.6113681,11.377478 2.5028476,11.253455 2.3994948,11.129431 2.337483,10.969234 2.280639,10.814205 2.280639,10.643673 V 8.6024545 q 0,-0.149862 -0.036173,-0.2738853 Q 2.208292,8.2045458 2.1462802,8.0960252 2.0842685,7.9875047 1.9964186,7.8893195 1.9137363,7.7859667 1.8103834,7.6877814 1.6553541,7.5379198 1.4951572,7.3983934 1.3401279,7.2536994 1.1954339,7.0883348 0.6476637,6.46305 0.3479405,5.7240771 0.0533848,4.9799365 0.0533848,4.1479459 q 0,-0.5632731 0.144694,-1.085205 Q 0.3479405,2.5408089 0.6114902,2.0860564 0.8802077,1.6313038 1.252278,1.2592335 1.6243483,0.8871632 2.0791009,0.6236134 2.5338535,0.3548959 3.0557854,0.2102019 3.5777174,0.0603403 4.1409905,0.0603403 Z m 1.1110432,8.5421142 q 0,-0.2377118 0.051677,-0.4392499 Q 5.3553866,7.9564989 5.4535718,7.780799 5.551757,7.5999315 5.6861157,7.4397346 5.8256421,7.27437 5.9961743,7.1193407 6.3320711,6.8092821 6.6059562,6.4837206 6.8798413,6.1581591 7.0710441,5.8015917 7.2674145,5.4398567 7.3707674,5.0316129 7.4792879,4.6233691 7.4792879,4.1479459 q 0,-0.6924641 -0.2635498,-1.302246 Q 6.9573559,2.235918 6.5026034,1.7863331 6.0478508,1.3315805 5.4380689,1.0680307 4.8334546,0.8044809 4.1409905,0.8044809 q -0.4650879,0 -0.8940023,0.1188558 Q 2.8232415,1.0421925 2.4511712,1.2592335 2.0791009,1.4762745 1.7742099,1.7811654 1.469319,2.0860564 1.252278,2.4581267 1.035237,2.830197 0.9163812,3.2591113 0.7975254,3.6880257 0.7975254,4.1479459 q 0,0.4702556 0.1033529,0.8784994 0.1085205,0.4082438 0.2997233,0.7699788 0.1963704,0.361735 0.4702555,0.6872965 0.2738851,0.3255615 0.6097819,0.6356201 0.1705322,0.1550293 0.3048909,0.3203939 0.1395264,0.1601969 0.2325439,0.3410644 0.098185,0.1756999 0.1498617,0.3824056 0.056844,0.2015381 0.056844,0.4392499 H 3.3968499 V 7.1193407 q -0.1498617,0 -0.2635498,-0.1085205 -0.1085205,-0.1085205 -0.1085205,-0.2635498 0,-0.1550293 0.1085205,-0.2635498 0.1085205,-0.1085205 0.2635498,-0.1085205 0.1550293,0 0.2635498,0.1085205 0.1085205,0.1085205 0.1085205,0.2635498 h 0.7389729 q 0,-0.1498616 0.1085205,-0.2583821 0.1085205,-0.1136882 0.2635498,-0.1136882 0.1550293,0 0.2635498,0.1085205 0.1085205,0.1085205 0.1085205,0.2635498 0,0.1550293 -0.1136881,0.2635498 -0.1085205,0.1085205 -0.2583822,0.1085205 v 1.4831138 z m 0,2.0412185 q 0,-0.124024 -0.082682,-0.15503 -0.082682,-0.02584 -0.1808675,-0.02584 H 4.8799634 v -0.37207 h 0.1085205 q 0.098185,0 0.1808675,-0.03101 0.082682,-0.02584 0.082682,-0.1550285 0,-0.124024 -0.077515,-0.155029 -0.077515,-0.03101 -0.1756999,-0.03101 H 4.8799634 V 9.3465945 H 3.3968499 v 0.372071 H 3.2883294 q -0.098185,0 -0.1808675,0.02584 -0.082682,0.03101 -0.082682,0.160197 0,0.1240225 0.077515,0.1550285 0.077515,0.03101 0.1756999,0.03101 h 0.1188551 v 0.37207 h -0.067179 q -0.051676,0 -0.1085205,0 -0.051676,0.0052 -0.098185,0.02067 -0.041341,0.02067 -0.072347,0.05684 -0.025838,0.03617 -0.025838,0.103353 0,0.124023 0.077515,0.155029 0.077515,0.03101 0.1756999,0.03101 h 0.1188546 l 0.3720703,0.37207 h 0.7389729 l 0.3720703,-0.37207 h 0.1085205 q 0.098185,0 0.1808675,-0.03101 0.082682,-0.02584 0.082682,-0.155029 z M 3.7689202,7.1193407 V 8.6024545 H 4.5078931 V 7.1193407 Z"
                            class="lightbulbOutline"/>
                        <path
                            d="m 5.2520326,10.643674 q 0,-0.124024 -0.08268,-0.15503 -0.08268,-0.02584 -0.180868,-0.02584 h -0.108521 v -0.37207 h 0.108521 q 0.09819,0 0.180867,-0.03101 0.08268,-0.02584 0.08268,-0.1550295 0,-0.124024 -0.07752,-0.155029 -0.07751,-0.03101 -0.175699,-0.03101 h -0.118856 v -0.372061 h -1.483113 v 0.372071 h -0.108521 q -0.09818,0 -0.180867,0.02584 -0.08268,0.03101 -0.08268,0.160197 0,0.1240235 0.07752,0.1550295 0.07752,0.03101 0.1757,0.03101 h 0.118855 v 0.37207 h -0.06718 q -0.05168,0 -0.108521,0 -0.05168,0.0052 -0.09818,0.02067 -0.04134,0.02067 -0.07235,0.05684 -0.02584,0.03617 -0.02584,0.103353 0,0.124023 0.07752,0.155029 0.07752,0.03101 0.1757,0.03101 h 0.118855 l 0.37207,0.37207 h 0.738973 l 0.37207,-0.37207 h 0.108521 q 0.09819,0 0.180867,-0.03101 0.08268,-0.02584 0.08268,-0.155029 z"
                            class="lightbulbScrew"/>
                    </g>
                    <g id="bathroomLightbulbColour" class="lightbulbColor">
                        <path
                            transform="translate(-0.40753672,-1.0138529)"
                            d="m 5.2520374,8.6024545 q 0,-0.2377121 0.051677,-0.4392499 Q 5.3553904,7.9564989 5.4535755,7.780799 5.5517605,7.5999315 5.6861194,7.4397346 5.8256458,7.27437 5.996178,7.1193407 6.3320748,6.8092821 6.6059599,6.4837206 6.879845,6.1581591 7.0710478,5.8015917 7.2674182,5.4398567 7.3707711,5.0316129 q 0.108521,-0.4082438 0.108521,-0.883667 0,-0.6924641 -0.2635503,-1.302246 Q 6.9573598,2.235918 6.5026072,1.7863331 6.0478547,1.3315805 5.4380728,1.0680307 4.8334584,0.80448092 4.1409944,0.80448092 q -0.465088,0 -0.894002,0.1188558 -0.423747,0.11885578 -0.795817,0.33589678 -0.372071,0.217041 -0.676962,0.5219319 -0.30489,0.304891 -0.521931,0.6769613 -0.217041,0.3720703 -0.335897,0.8009846 -0.118856,0.4289144 -0.118856,0.8888346 0,0.4702556 0.103353,0.8784994 0.10852,0.4082438 0.299723,0.7699788 0.196371,0.361735 0.470256,0.6872965 0.273885,0.3255615 0.609782,0.6356201 0.170532,0.1550293 0.30489,0.3203939 0.139527,0.1601969 0.232544,0.3410644 0.09819,0.1756999 0.149862,0.3824056 0.05684,0.2015378 0.05684,0.4392499 h 0.37207 V 7.1193407 q -0.149861,0 -0.263549,-0.1085205 -0.108521,-0.1085205 -0.108521,-0.2635498 0,-0.1550293 0.108521,-0.2635498 0.10852,-0.1085205 0.263549,-0.1085205 0.15503,0 0.26355,0.1085205 0.108521,0.1085205 0.108521,0.2635498 h 0.738973 q 0,-0.1498616 0.10852,-0.2583821 0.108521,-0.1136882 0.26355,-0.1136882 0.155029,0 0.26355,0.1085205 0.10852,0.1085205 0.10852,0.2635498 0,0.1550293 -0.113688,0.2635498 -0.10852,0.1085205 -0.258382,0.1085205 v 1.4831138 z"
                        />
                        <rect
                            width="0.7389729"
                            height="1.4831138"
                            x="3.3613834"
                            y="6.1054878" />
                    </g>
                </g>
            </g>
            <text
                text-anchor="middle"
                x="112"
                y="100"
                id="bathroomTemperature"></text>
            <text
                text-anchor="middle"
                x="112"
                y="120"
                id="bathroomIcon"></text>
        </g>
        <g>
            <rect
                class="room"
                id="svg_kitchen"
                width="224"
                height="551"
                x="0"
                y="200" />
            <text
                text-anchor="middle"
                x="112"
                y="220">Kitchen</text>
            <g transform="translate(104,300)" id="kitchenLightbulb" style="visibility:hidden">
                <g class="matrixTransform">
                    <g class="shift">
                        <path
                            d="m 4.1409905,0.0603403 q 0.5632731,0 1.085205,0.1498616 0.521932,0.144694 0.9715169,0.4134115 0.4547526,0.2635498 0.8268229,0.6356201 0.3772376,0.3720703 0.6407876,0.8268229 0.268718,0.4547525 0.413412,0.9766845 0.144694,0.5219319 0.144694,1.085205 0,0.8319906 -0.294556,1.5761312 Q 7.6343169,6.46305 7.086547,7.0883348 6.941853,7.2536994 6.7816561,7.3983934 6.6266268,7.5379198 6.4715975,7.6877814 6.3682446,7.7859667 6.2803947,7.8893195 q -0.08785,0.098185 -0.1498616,0.2067057 -0.062012,0.1085206 -0.098185,0.232544 -0.036174,0.1240233 -0.036174,0.2738853 v 2.0412185 q 0,0.170532 -0.062012,0.325561 -0.056844,0.160197 -0.1653646,0.284221 Q 5.6654447,11.377478 5.515583,11.46016 5.370889,11.54284 5.2003568,11.563513 L 4.8179517,11.945919 H 3.4588616 L 3.076456,11.563513 Q 2.9059238,11.542843 2.7560621,11.46016 2.6113681,11.377478 2.5028476,11.253455 2.3994948,11.129431 2.337483,10.969234 2.280639,10.814205 2.280639,10.643673 V 8.6024545 q 0,-0.149862 -0.036173,-0.2738853 Q 2.208292,8.2045458 2.1462802,8.0960252 2.0842685,7.9875047 1.9964186,7.8893195 1.9137363,7.7859667 1.8103834,7.6877814 1.6553541,7.5379198 1.4951572,7.3983934 1.3401279,7.2536994 1.1954339,7.0883348 0.6476637,6.46305 0.3479405,5.7240771 0.0533848,4.9799365 0.0533848,4.1479459 q 0,-0.5632731 0.144694,-1.085205 Q 0.3479405,2.5408089 0.6114902,2.0860564 0.8802077,1.6313038 1.252278,1.2592335 1.6243483,0.8871632 2.0791009,0.6236134 2.5338535,0.3548959 3.0557854,0.2102019 3.5777174,0.0603403 4.1409905,0.0603403 Z m 1.1110432,8.5421142 q 0,-0.2377118 0.051677,-0.4392499 Q 5.3553866,7.9564989 5.4535718,7.780799 5.551757,7.5999315 5.6861157,7.4397346 5.8256421,7.27437 5.9961743,7.1193407 6.3320711,6.8092821 6.6059562,6.4837206 6.8798413,6.1581591 7.0710441,5.8015917 7.2674145,5.4398567 7.3707674,5.0316129 7.4792879,4.6233691 7.4792879,4.1479459 q 0,-0.6924641 -0.2635498,-1.302246 Q 6.9573559,2.235918 6.5026034,1.7863331 6.0478508,1.3315805 5.4380689,1.0680307 4.8334546,0.8044809 4.1409905,0.8044809 q -0.4650879,0 -0.8940023,0.1188558 Q 2.8232415,1.0421925 2.4511712,1.2592335 2.0791009,1.4762745 1.7742099,1.7811654 1.469319,2.0860564 1.252278,2.4581267 1.035237,2.830197 0.9163812,3.2591113 0.7975254,3.6880257 0.7975254,4.1479459 q 0,0.4702556 0.1033529,0.8784994 0.1085205,0.4082438 0.2997233,0.7699788 0.1963704,0.361735 0.4702555,0.6872965 0.2738851,0.3255615 0.6097819,0.6356201 0.1705322,0.1550293 0.3048909,0.3203939 0.1395264,0.1601969 0.2325439,0.3410644 0.098185,0.1756999 0.1498617,0.3824056 0.056844,0.2015381 0.056844,0.4392499 H 3.3968499 V 7.1193407 q -0.1498617,0 -0.2635498,-0.1085205 -0.1085205,-0.1085205 -0.1085205,-0.2635498 0,-0.1550293 0.1085205,-0.2635498 0.1085205,-0.1085205 0.2635498,-0.1085205 0.1550293,0 0.2635498,0.1085205 0.1085205,0.1085205 0.1085205,0.2635498 h 0.7389729 q 0,-0.1498616 0.1085205,-0.2583821 0.1085205,-0.1136882 0.2635498,-0.1136882 0.1550293,0 0.2635498,0.1085205 0.1085205,0.1085205 0.1085205,0.2635498 0,0.1550293 -0.1136881,0.2635498 -0.1085205,0.1085205 -0.2583822,0.1085205 v 1.4831138 z m 0,2.0412185 q 0,-0.124024 -0.082682,-0.15503 -0.082682,-0.02584 -0.1808675,-0.02584 H 4.8799634 v -0.37207 h 0.1085205 q 0.098185,0 0.1808675,-0.03101 0.082682,-0.02584 0.082682,-0.1550285 0,-0.124024 -0.077515,-0.155029 -0.077515,-0.03101 -0.1756999,-0.03101 H 4.8799634 V 9.3465945 H 3.3968499 v 0.372071 H 3.2883294 q -0.098185,0 -0.1808675,0.02584 -0.082682,0.03101 -0.082682,0.160197 0,0.1240225 0.077515,0.1550285 0.077515,0.03101 0.1756999,0.03101 h 0.1188551 v 0.37207 h -0.067179 q -0.051676,0 -0.1085205,0 -0.051676,0.0052 -0.098185,0.02067 -0.041341,0.02067 -0.072347,0.05684 -0.025838,0.03617 -0.025838,0.103353 0,0.124023 0.077515,0.155029 0.077515,0.03101 0.1756999,0.03101 h 0.1188546 l 0.3720703,0.37207 h 0.7389729 l 0.3720703,-0.37207 h 0.1085205 q 0.098185,0 0.1808675,-0.03101 0.082682,-0.02584 0.082682,-0.155029 z M 3.7689202,7.1193407 V 8.6024545 H 4.5078931 V 7.1193407 Z"
                            class="lightbulbOutline"/>
                        <path
                            d="m 5.2520326,10.643674 q 0,-0.124024 -0.08268,-0.15503 -0.08268,-0.02584 -0.180868,-0.02584 h -0.108521 v -0.37207 h 0.108521 q 0.09819,0 0.180867,-0.03101 0.08268,-0.02584 0.08268,-0.1550295 0,-0.124024 -0.07752,-0.155029 -0.07751,-0.03101 -0.175699,-0.03101 h -0.118856 v -0.372061 h -1.483113 v 0.372071 h -0.108521 q -0.09818,0 -0.180867,0.02584 -0.08268,0.03101 -0.08268,0.160197 0,0.1240235 0.07752,0.1550295 0.07752,0.03101 0.1757,0.03101 h 0.118855 v 0.37207 h -0.06718 q -0.05168,0 -0.108521,0 -0.05168,0.0052 -0.09818,0.02067 -0.04134,0.02067 -0.07235,0.05684 -0.02584,0.03617 -0.02584,0.103353 0,0.124023 0.07752,0.155029 0.07752,0.03101 0.1757,0.03101 h 0.118855 l 0.37207,0.37207 h 0.738973 l 0.37207,-0.37207 h 0.108521 q 0.09819,0 0.180867,-0.03101 0.08268,-0.02584 0.08268,-0.155029 z"
                            class="lightbulbScrew"/>
                    </g>
                    <g id="kitchenLightbulbColour" class="lightbulbColor">
                        <path
                            transform="translate(-0.40753672,-1.0138529)"
                            d="m 5.2520374,8.6024545 q 0,-0.2377121 0.051677,-0.4392499 Q 5.3553904,7.9564989 5.4535755,7.780799 5.5517605,7.5999315 5.6861194,7.4397346 5.8256458,7.27437 5.996178,7.1193407 6.3320748,6.8092821 6.6059599,6.4837206 6.879845,6.1581591 7.0710478,5.8015917 7.2674182,5.4398567 7.3707711,5.0316129 q 0.108521,-0.4082438 0.108521,-0.883667 0,-0.6924641 -0.2635503,-1.302246 Q 6.9573598,2.235918 6.5026072,1.7863331 6.0478547,1.3315805 5.4380728,1.0680307 4.8334584,0.80448092 4.1409944,0.80448092 q -0.465088,0 -0.894002,0.1188558 -0.423747,0.11885578 -0.795817,0.33589678 -0.372071,0.217041 -0.676962,0.5219319 -0.30489,0.304891 -0.521931,0.6769613 -0.217041,0.3720703 -0.335897,0.8009846 -0.118856,0.4289144 -0.118856,0.8888346 0,0.4702556 0.103353,0.8784994 0.10852,0.4082438 0.299723,0.7699788 0.196371,0.361735 0.470256,0.6872965 0.273885,0.3255615 0.609782,0.6356201 0.170532,0.1550293 0.30489,0.3203939 0.139527,0.1601969 0.232544,0.3410644 0.09819,0.1756999 0.149862,0.3824056 0.05684,0.2015378 0.05684,0.4392499 h 0.37207 V 7.1193407 q -0.149861,0 -0.263549,-0.1085205 -0.108521,-0.1085205 -0.108521,-0.2635498 0,-0.1550293 0.108521,-0.2635498 0.10852,-0.1085205 0.263549,-0.1085205 0.15503,0 0.26355,0.1085205 0.108521,0.1085205 0.108521,0.2635498 h 0.738973 q 0,-0.1498616 0.10852,-0.2583821 0.108521,-0.1136882 0.26355,-0.1136882 0.155029,0 0.26355,0.1085205 0.10852,0.1085205 0.10852,0.2635498 0,0.1550293 -0.113688,0.2635498 -0.10852,0.1085205 -0.258382,0.1085205 v 1.4831138 z"
                        />
                        <rect
                            width="0.7389729"
                            height="1.4831138"
                            x="3.3613834"
                            y="6.1054878" />
                    </g>
                </g>
            </g>
            <g transform="translate(104,600)" id="living_roomLightbulb" style="visibility:hidden">
                <g class="matrixTransform">
                    <g class="shift">
                        <path
                            d="m 4.1409905,0.0603403 q 0.5632731,0 1.085205,0.1498616 0.521932,0.144694 0.9715169,0.4134115 0.4547526,0.2635498 0.8268229,0.6356201 0.3772376,0.3720703 0.6407876,0.8268229 0.268718,0.4547525 0.413412,0.9766845 0.144694,0.5219319 0.144694,1.085205 0,0.8319906 -0.294556,1.5761312 Q 7.6343169,6.46305 7.086547,7.0883348 6.941853,7.2536994 6.7816561,7.3983934 6.6266268,7.5379198 6.4715975,7.6877814 6.3682446,7.7859667 6.2803947,7.8893195 q -0.08785,0.098185 -0.1498616,0.2067057 -0.062012,0.1085206 -0.098185,0.232544 -0.036174,0.1240233 -0.036174,0.2738853 v 2.0412185 q 0,0.170532 -0.062012,0.325561 -0.056844,0.160197 -0.1653646,0.284221 Q 5.6654447,11.377478 5.515583,11.46016 5.370889,11.54284 5.2003568,11.563513 L 4.8179517,11.945919 H 3.4588616 L 3.076456,11.563513 Q 2.9059238,11.542843 2.7560621,11.46016 2.6113681,11.377478 2.5028476,11.253455 2.3994948,11.129431 2.337483,10.969234 2.280639,10.814205 2.280639,10.643673 V 8.6024545 q 0,-0.149862 -0.036173,-0.2738853 Q 2.208292,8.2045458 2.1462802,8.0960252 2.0842685,7.9875047 1.9964186,7.8893195 1.9137363,7.7859667 1.8103834,7.6877814 1.6553541,7.5379198 1.4951572,7.3983934 1.3401279,7.2536994 1.1954339,7.0883348 0.6476637,6.46305 0.3479405,5.7240771 0.0533848,4.9799365 0.0533848,4.1479459 q 0,-0.5632731 0.144694,-1.085205 Q 0.3479405,2.5408089 0.6114902,2.0860564 0.8802077,1.6313038 1.252278,1.2592335 1.6243483,0.8871632 2.0791009,0.6236134 2.5338535,0.3548959 3.0557854,0.2102019 3.5777174,0.0603403 4.1409905,0.0603403 Z m 1.1110432,8.5421142 q 0,-0.2377118 0.051677,-0.4392499 Q 5.3553866,7.9564989 5.4535718,7.780799 5.551757,7.5999315 5.6861157,7.4397346 5.8256421,7.27437 5.9961743,7.1193407 6.3320711,6.8092821 6.6059562,6.4837206 6.8798413,6.1581591 7.0710441,5.8015917 7.2674145,5.4398567 7.3707674,5.0316129 7.4792879,4.6233691 7.4792879,4.1479459 q 0,-0.6924641 -0.2635498,-1.302246 Q 6.9573559,2.235918 6.5026034,1.7863331 6.0478508,1.3315805 5.4380689,1.0680307 4.8334546,0.8044809 4.1409905,0.8044809 q -0.4650879,0 -0.8940023,0.1188558 Q 2.8232415,1.0421925 2.4511712,1.2592335 2.0791009,1.4762745 1.7742099,1.7811654 1.469319,2.0860564 1.252278,2.4581267 1.035237,2.830197 0.9163812,3.2591113 0.7975254,3.6880257 0.7975254,4.1479459 q 0,0.4702556 0.1033529,0.8784994 0.1085205,0.4082438 0.2997233,0.7699788 0.1963704,0.361735 0.4702555,0.6872965 0.2738851,0.3255615 0.6097819,0.6356201 0.1705322,0.1550293 0.3048909,0.3203939 0.1395264,0.1601969 0.2325439,0.3410644 0.098185,0.1756999 0.1498617,0.3824056 0.056844,0.2015381 0.056844,0.4392499 H 3.3968499 V 7.1193407 q -0.1498617,0 -0.2635498,-0.1085205 -0.1085205,-0.1085205 -0.1085205,-0.2635498 0,-0.1550293 0.1085205,-0.2635498 0.1085205,-0.1085205 0.2635498,-0.1085205 0.1550293,0 0.2635498,0.1085205 0.1085205,0.1085205 0.1085205,0.2635498 h 0.7389729 q 0,-0.1498616 0.1085205,-0.2583821 0.1085205,-0.1136882 0.2635498,-0.1136882 0.1550293,0 0.2635498,0.1085205 0.1085205,0.1085205 0.1085205,0.2635498 0,0.1550293 -0.1136881,0.2635498 -0.1085205,0.1085205 -0.2583822,0.1085205 v 1.4831138 z m 0,2.0412185 q 0,-0.124024 -0.082682,-0.15503 -0.082682,-0.02584 -0.1808675,-0.02584 H 4.8799634 v -0.37207 h 0.1085205 q 0.098185,0 0.1808675,-0.03101 0.082682,-0.02584 0.082682,-0.1550285 0,-0.124024 -0.077515,-0.155029 -0.077515,-0.03101 -0.1756999,-0.03101 H 4.8799634 V 9.3465945 H 3.3968499 v 0.372071 H 3.2883294 q -0.098185,0 -0.1808675,0.02584 -0.082682,0.03101 -0.082682,0.160197 0,0.1240225 0.077515,0.1550285 0.077515,0.03101 0.1756999,0.03101 h 0.1188551 v 0.37207 h -0.067179 q -0.051676,0 -0.1085205,0 -0.051676,0.0052 -0.098185,0.02067 -0.041341,0.02067 -0.072347,0.05684 -0.025838,0.03617 -0.025838,0.103353 0,0.124023 0.077515,0.155029 0.077515,0.03101 0.1756999,0.03101 h 0.1188546 l 0.3720703,0.37207 h 0.7389729 l 0.3720703,-0.37207 h 0.1085205 q 0.098185,0 0.1808675,-0.03101 0.082682,-0.02584 0.082682,-0.155029 z M 3.7689202,7.1193407 V 8.6024545 H 4.5078931 V 7.1193407 Z"
                            class="lightbulbOutline"/>
                        <path
                            d="m 5.2520326,10.643674 q 0,-0.124024 -0.08268,-0.15503 -0.08268,-0.02584 -0.180868,-0.02584 h -0.108521 v -0.37207 h 0.108521 q 0.09819,0 0.180867,-0.03101 0.08268,-0.02584 0.08268,-0.1550295 0,-0.124024 -0.07752,-0.155029 -0.07751,-0.03101 -0.175699,-0.03101 h -0.118856 v -0.372061 h -1.483113 v 0.372071 h -0.108521 q -0.09818,0 -0.180867,0.02584 -0.08268,0.03101 -0.08268,0.160197 0,0.1240235 0.07752,0.1550295 0.07752,0.03101 0.1757,0.03101 h 0.118855 v 0.37207 h -0.06718 q -0.05168,0 -0.108521,0 -0.05168,0.0052 -0.09818,0.02067 -0.04134,0.02067 -0.07235,0.05684 -0.02584,0.03617 -0.02584,0.103353 0,0.124023 0.07752,0.155029 0.07752,0.03101 0.1757,0.03101 h 0.118855 l 0.37207,0.37207 h 0.738973 l 0.37207,-0.37207 h 0.108521 q 0.09819,0 0.180867,-0.03101 0.08268,-0.02584 0.08268,-0.155029 z"
                            class="lightbulbScrew"/>
                    </g>
                    <g id="living_roomLightbulbColour" class="lightbulbColor">
                        <path
                            transform="translate(-0.40753672,-1.0138529)"
                            d="m 5.2520374,8.6024545 q 0,-0.2377121 0.051677,-0.4392499 Q 5.3553904,7.9564989 5.4535755,7.780799 5.5517605,7.5999315 5.6861194,7.4397346 5.8256458,7.27437 5.996178,7.1193407 6.3320748,6.8092821 6.6059599,6.4837206 6.879845,6.1581591 7.0710478,5.8015917 7.2674182,5.4398567 7.3707711,5.0316129 q 0.108521,-0.4082438 0.108521,-0.883667 0,-0.6924641 -0.2635503,-1.302246 Q 6.9573598,2.235918 6.5026072,1.7863331 6.0478547,1.3315805 5.4380728,1.0680307 4.8334584,0.80448092 4.1409944,0.80448092 q -0.465088,0 -0.894002,0.1188558 -0.423747,0.11885578 -0.795817,0.33589678 -0.372071,0.217041 -0.676962,0.5219319 -0.30489,0.304891 -0.521931,0.6769613 -0.217041,0.3720703 -0.335897,0.8009846 -0.118856,0.4289144 -0.118856,0.8888346 0,0.4702556 0.103353,0.8784994 0.10852,0.4082438 0.299723,0.7699788 0.196371,0.361735 0.470256,0.6872965 0.273885,0.3255615 0.609782,0.6356201 0.170532,0.1550293 0.30489,0.3203939 0.139527,0.1601969 0.232544,0.3410644 0.09819,0.1756999 0.149862,0.3824056 0.05684,0.2015378 0.05684,0.4392499 h 0.37207 V 7.1193407 q -0.149861,0 -0.263549,-0.1085205 -0.108521,-0.1085205 -0.108521,-0.2635498 0,-0.1550293 0.108521,-0.2635498 0.10852,-0.1085205 0.263549,-0.1085205 0.15503,0 0.26355,0.1085205 0.108521,0.1085205 0.108521,0.2635498 h 0.738973 q 0,-0.1498616 0.10852,-0.2583821 0.108521,-0.1136882 0.26355,-0.1136882 0.155029,0 0.26355,0.1085205 0.10852,0.1085205 0.10852,0.2635498 0,0.1550293 -0.113688,0.2635498 -0.10852,0.1085205 -0.258382,0.1085205 v 1.4831138 z"
                        />
                        <rect
                            width="0.7389729"
                            height="1.4831138"
                            x="3.3613834"
                            y="6.1054878" />
                    </g>
                </g>
            </g>
            <text
                text-anchor="middle"
                x="112"
                y="475"
                id="kitchenTemperature"></text>
            <text
                text-anchor="middle"
                x="112"
                y="495"
                id="kitchenIcon"></text>
        </g>
        <g>
            <rect
                class="room"
                id="svg_bedroom"
                width="230"
                height="300"
                x="224"
                y="300" />
            <text
                text-anchor="middle"
                x="339"
                y="320">Bedroom</text>
            <g transform="translate(330,410)" id="bedroomLightbulb" style="visibility:hidden">
                <g class="matrixTransform">
                    <g class="shift">
                        <path
                            d="m 4.1409905,0.0603403 q 0.5632731,0 1.085205,0.1498616 0.521932,0.144694 0.9715169,0.4134115 0.4547526,0.2635498 0.8268229,0.6356201 0.3772376,0.3720703 0.6407876,0.8268229 0.268718,0.4547525 0.413412,0.9766845 0.144694,0.5219319 0.144694,1.085205 0,0.8319906 -0.294556,1.5761312 Q 7.6343169,6.46305 7.086547,7.0883348 6.941853,7.2536994 6.7816561,7.3983934 6.6266268,7.5379198 6.4715975,7.6877814 6.3682446,7.7859667 6.2803947,7.8893195 q -0.08785,0.098185 -0.1498616,0.2067057 -0.062012,0.1085206 -0.098185,0.232544 -0.036174,0.1240233 -0.036174,0.2738853 v 2.0412185 q 0,0.170532 -0.062012,0.325561 -0.056844,0.160197 -0.1653646,0.284221 Q 5.6654447,11.377478 5.515583,11.46016 5.370889,11.54284 5.2003568,11.563513 L 4.8179517,11.945919 H 3.4588616 L 3.076456,11.563513 Q 2.9059238,11.542843 2.7560621,11.46016 2.6113681,11.377478 2.5028476,11.253455 2.3994948,11.129431 2.337483,10.969234 2.280639,10.814205 2.280639,10.643673 V 8.6024545 q 0,-0.149862 -0.036173,-0.2738853 Q 2.208292,8.2045458 2.1462802,8.0960252 2.0842685,7.9875047 1.9964186,7.8893195 1.9137363,7.7859667 1.8103834,7.6877814 1.6553541,7.5379198 1.4951572,7.3983934 1.3401279,7.2536994 1.1954339,7.0883348 0.6476637,6.46305 0.3479405,5.7240771 0.0533848,4.9799365 0.0533848,4.1479459 q 0,-0.5632731 0.144694,-1.085205 Q 0.3479405,2.5408089 0.6114902,2.0860564 0.8802077,1.6313038 1.252278,1.2592335 1.6243483,0.8871632 2.0791009,0.6236134 2.5338535,0.3548959 3.0557854,0.2102019 3.5777174,0.0603403 4.1409905,0.0603403 Z m 1.1110432,8.5421142 q 0,-0.2377118 0.051677,-0.4392499 Q 5.3553866,7.9564989 5.4535718,7.780799 5.551757,7.5999315 5.6861157,7.4397346 5.8256421,7.27437 5.9961743,7.1193407 6.3320711,6.8092821 6.6059562,6.4837206 6.8798413,6.1581591 7.0710441,5.8015917 7.2674145,5.4398567 7.3707674,5.0316129 7.4792879,4.6233691 7.4792879,4.1479459 q 0,-0.6924641 -0.2635498,-1.302246 Q 6.9573559,2.235918 6.5026034,1.7863331 6.0478508,1.3315805 5.4380689,1.0680307 4.8334546,0.8044809 4.1409905,0.8044809 q -0.4650879,0 -0.8940023,0.1188558 Q 2.8232415,1.0421925 2.4511712,1.2592335 2.0791009,1.4762745 1.7742099,1.7811654 1.469319,2.0860564 1.252278,2.4581267 1.035237,2.830197 0.9163812,3.2591113 0.7975254,3.6880257 0.7975254,4.1479459 q 0,0.4702556 0.1033529,0.8784994 0.1085205,0.4082438 0.2997233,0.7699788 0.1963704,0.361735 0.4702555,0.6872965 0.2738851,0.3255615 0.6097819,0.6356201 0.1705322,0.1550293 0.3048909,0.3203939 0.1395264,0.1601969 0.2325439,0.3410644 0.098185,0.1756999 0.1498617,0.3824056 0.056844,0.2015381 0.056844,0.4392499 H 3.3968499 V 7.1193407 q -0.1498617,0 -0.2635498,-0.1085205 -0.1085205,-0.1085205 -0.1085205,-0.2635498 0,-0.1550293 0.1085205,-0.2635498 0.1085205,-0.1085205 0.2635498,-0.1085205 0.1550293,0 0.2635498,0.1085205 0.1085205,0.1085205 0.1085205,0.2635498 h 0.7389729 q 0,-0.1498616 0.1085205,-0.2583821 0.1085205,-0.1136882 0.2635498,-0.1136882 0.1550293,0 0.2635498,0.1085205 0.1085205,0.1085205 0.1085205,0.2635498 0,0.1550293 -0.1136881,0.2635498 -0.1085205,0.1085205 -0.2583822,0.1085205 v 1.4831138 z m 0,2.0412185 q 0,-0.124024 -0.082682,-0.15503 -0.082682,-0.02584 -0.1808675,-0.02584 H 4.8799634 v -0.37207 h 0.1085205 q 0.098185,0 0.1808675,-0.03101 0.082682,-0.02584 0.082682,-0.1550285 0,-0.124024 -0.077515,-0.155029 -0.077515,-0.03101 -0.1756999,-0.03101 H 4.8799634 V 9.3465945 H 3.3968499 v 0.372071 H 3.2883294 q -0.098185,0 -0.1808675,0.02584 -0.082682,0.03101 -0.082682,0.160197 0,0.1240225 0.077515,0.1550285 0.077515,0.03101 0.1756999,0.03101 h 0.1188551 v 0.37207 h -0.067179 q -0.051676,0 -0.1085205,0 -0.051676,0.0052 -0.098185,0.02067 -0.041341,0.02067 -0.072347,0.05684 -0.025838,0.03617 -0.025838,0.103353 0,0.124023 0.077515,0.155029 0.077515,0.03101 0.1756999,0.03101 h 0.1188546 l 0.3720703,0.37207 h 0.7389729 l 0.3720703,-0.37207 h 0.1085205 q 0.098185,0 0.1808675,-0.03101 0.082682,-0.02584 0.082682,-0.155029 z M 3.7689202,7.1193407 V 8.6024545 H 4.5078931 V 7.1193407 Z"
                            class="lightbulbOutline"/>
                        <path
                            d="m 5.2520326,10.643674 q 0,-0.124024 -0.08268,-0.15503 -0.08268,-0.02584 -0.180868,-0.02584 h -0.108521 v -0.37207 h 0.108521 q 0.09819,0 0.180867,-0.03101 0.08268,-0.02584 0.08268,-0.1550295 0,-0.124024 -0.07752,-0.155029 -0.07751,-0.03101 -0.175699,-0.03101 h -0.118856 v -0.372061 h -1.483113 v 0.372071 h -0.108521 q -0.09818,0 -0.180867,0.02584 -0.08268,0.03101 -0.08268,0.160197 0,0.1240235 0.07752,0.1550295 0.07752,0.03101 0.1757,0.03101 h 0.118855 v 0.37207 h -0.06718 q -0.05168,0 -0.108521,0 -0.05168,0.0052 -0.09818,0.02067 -0.04134,0.02067 -0.07235,0.05684 -0.02584,0.03617 -0.02584,0.103353 0,0.124023 0.07752,0.155029 0.07752,0.03101 0.1757,0.03101 h 0.118855 l 0.37207,0.37207 h 0.738973 l 0.37207,-0.37207 h 0.108521 q 0.09819,0 0.180867,-0.03101 0.08268,-0.02584 0.08268,-0.155029 z"
                            class="lightbulbScrew"/>
                    </g>
                    <g id="bedroomLightbulbColour" class="lightbulbColor">
                        <path
                            transform="translate(-0.40753672,-1.0138529)"
                            d="m 5.2520374,8.6024545 q 0,-0.2377121 0.051677,-0.4392499 Q 5.3553904,7.9564989 5.4535755,7.780799 5.5517605,7.5999315 5.6861194,7.4397346 5.8256458,7.27437 5.996178,7.1193407 6.3320748,6.8092821 6.6059599,6.4837206 6.879845,6.1581591 7.0710478,5.8015917 7.2674182,5.4398567 7.3707711,5.0316129 q 0.108521,-0.4082438 0.108521,-0.883667 0,-0.6924641 -0.2635503,-1.302246 Q 6.9573598,2.235918 6.5026072,1.7863331 6.0478547,1.3315805 5.4380728,1.0680307 4.8334584,0.80448092 4.1409944,0.80448092 q -0.465088,0 -0.894002,0.1188558 -0.423747,0.11885578 -0.795817,0.33589678 -0.372071,0.217041 -0.676962,0.5219319 -0.30489,0.304891 -0.521931,0.6769613 -0.217041,0.3720703 -0.335897,0.8009846 -0.118856,0.4289144 -0.118856,0.8888346 0,0.4702556 0.103353,0.8784994 0.10852,0.4082438 0.299723,0.7699788 0.196371,0.361735 0.470256,0.6872965 0.273885,0.3255615 0.609782,0.6356201 0.170532,0.1550293 0.30489,0.3203939 0.139527,0.1601969 0.232544,0.3410644 0.09819,0.1756999 0.149862,0.3824056 0.05684,0.2015378 0.05684,0.4392499 h 0.37207 V 7.1193407 q -0.149861,0 -0.263549,-0.1085205 -0.108521,-0.1085205 -0.108521,-0.2635498 0,-0.1550293 0.108521,-0.2635498 0.10852,-0.1085205 0.263549,-0.1085205 0.15503,0 0.26355,0.1085205 0.108521,0.1085205 0.108521,0.2635498 h 0.738973 q 0,-0.1498616 0.10852,-0.2583821 0.108521,-0.1136882 0.26355,-0.1136882 0.155029,0 0.26355,0.1085205 0.10852,0.1085205 0.10852,0.2635498 0,0.1550293 -0.113688,0.2635498 -0.10852,0.1085205 -0.258382,0.1085205 v 1.4831138 z"
                        />
                        <rect
                            width="0.7389729"
                            height="1.4831138"
                            x="3.3613834"
                            y="6.1054878" />
                    </g>
                </g>
            </g>
            <g transform="translate(430,570)" id="bedroom_lampLightbulb" style="visibility:hidden">
                <g class="matrixTransform">
                    <g class="shift">
                        <path
                            d="m 4.1409905,0.0603403 q 0.5632731,0 1.085205,0.1498616 0.521932,0.144694 0.9715169,0.4134115 0.4547526,0.2635498 0.8268229,0.6356201 0.3772376,0.3720703 0.6407876,0.8268229 0.268718,0.4547525 0.413412,0.9766845 0.144694,0.5219319 0.144694,1.085205 0,0.8319906 -0.294556,1.5761312 Q 7.6343169,6.46305 7.086547,7.0883348 6.941853,7.2536994 6.7816561,7.3983934 6.6266268,7.5379198 6.4715975,7.6877814 6.3682446,7.7859667 6.2803947,7.8893195 q -0.08785,0.098185 -0.1498616,0.2067057 -0.062012,0.1085206 -0.098185,0.232544 -0.036174,0.1240233 -0.036174,0.2738853 v 2.0412185 q 0,0.170532 -0.062012,0.325561 -0.056844,0.160197 -0.1653646,0.284221 Q 5.6654447,11.377478 5.515583,11.46016 5.370889,11.54284 5.2003568,11.563513 L 4.8179517,11.945919 H 3.4588616 L 3.076456,11.563513 Q 2.9059238,11.542843 2.7560621,11.46016 2.6113681,11.377478 2.5028476,11.253455 2.3994948,11.129431 2.337483,10.969234 2.280639,10.814205 2.280639,10.643673 V 8.6024545 q 0,-0.149862 -0.036173,-0.2738853 Q 2.208292,8.2045458 2.1462802,8.0960252 2.0842685,7.9875047 1.9964186,7.8893195 1.9137363,7.7859667 1.8103834,7.6877814 1.6553541,7.5379198 1.4951572,7.3983934 1.3401279,7.2536994 1.1954339,7.0883348 0.6476637,6.46305 0.3479405,5.7240771 0.0533848,4.9799365 0.0533848,4.1479459 q 0,-0.5632731 0.144694,-1.085205 Q 0.3479405,2.5408089 0.6114902,2.0860564 0.8802077,1.6313038 1.252278,1.2592335 1.6243483,0.8871632 2.0791009,0.6236134 2.5338535,0.3548959 3.0557854,0.2102019 3.5777174,0.0603403 4.1409905,0.0603403 Z m 1.1110432,8.5421142 q 0,-0.2377118 0.051677,-0.4392499 Q 5.3553866,7.9564989 5.4535718,7.780799 5.551757,7.5999315 5.6861157,7.4397346 5.8256421,7.27437 5.9961743,7.1193407 6.3320711,6.8092821 6.6059562,6.4837206 6.8798413,6.1581591 7.0710441,5.8015917 7.2674145,5.4398567 7.3707674,5.0316129 7.4792879,4.6233691 7.4792879,4.1479459 q 0,-0.6924641 -0.2635498,-1.302246 Q 6.9573559,2.235918 6.5026034,1.7863331 6.0478508,1.3315805 5.4380689,1.0680307 4.8334546,0.8044809 4.1409905,0.8044809 q -0.4650879,0 -0.8940023,0.1188558 Q 2.8232415,1.0421925 2.4511712,1.2592335 2.0791009,1.4762745 1.7742099,1.7811654 1.469319,2.0860564 1.252278,2.4581267 1.035237,2.830197 0.9163812,3.2591113 0.7975254,3.6880257 0.7975254,4.1479459 q 0,0.4702556 0.1033529,0.8784994 0.1085205,0.4082438 0.2997233,0.7699788 0.1963704,0.361735 0.4702555,0.6872965 0.2738851,0.3255615 0.6097819,0.6356201 0.1705322,0.1550293 0.3048909,0.3203939 0.1395264,0.1601969 0.2325439,0.3410644 0.098185,0.1756999 0.1498617,0.3824056 0.056844,0.2015381 0.056844,0.4392499 H 3.3968499 V 7.1193407 q -0.1498617,0 -0.2635498,-0.1085205 -0.1085205,-0.1085205 -0.1085205,-0.2635498 0,-0.1550293 0.1085205,-0.2635498 0.1085205,-0.1085205 0.2635498,-0.1085205 0.1550293,0 0.2635498,0.1085205 0.1085205,0.1085205 0.1085205,0.2635498 h 0.7389729 q 0,-0.1498616 0.1085205,-0.2583821 0.1085205,-0.1136882 0.2635498,-0.1136882 0.1550293,0 0.2635498,0.1085205 0.1085205,0.1085205 0.1085205,0.2635498 0,0.1550293 -0.1136881,0.2635498 -0.1085205,0.1085205 -0.2583822,0.1085205 v 1.4831138 z m 0,2.0412185 q 0,-0.124024 -0.082682,-0.15503 -0.082682,-0.02584 -0.1808675,-0.02584 H 4.8799634 v -0.37207 h 0.1085205 q 0.098185,0 0.1808675,-0.03101 0.082682,-0.02584 0.082682,-0.1550285 0,-0.124024 -0.077515,-0.155029 -0.077515,-0.03101 -0.1756999,-0.03101 H 4.8799634 V 9.3465945 H 3.3968499 v 0.372071 H 3.2883294 q -0.098185,0 -0.1808675,0.02584 -0.082682,0.03101 -0.082682,0.160197 0,0.1240225 0.077515,0.1550285 0.077515,0.03101 0.1756999,0.03101 h 0.1188551 v 0.37207 h -0.067179 q -0.051676,0 -0.1085205,0 -0.051676,0.0052 -0.098185,0.02067 -0.041341,0.02067 -0.072347,0.05684 -0.025838,0.03617 -0.025838,0.103353 0,0.124023 0.077515,0.155029 0.077515,0.03101 0.1756999,0.03101 h 0.1188546 l 0.3720703,0.37207 h 0.7389729 l 0.3720703,-0.37207 h 0.1085205 q 0.098185,0 0.1808675,-0.03101 0.082682,-0.02584 0.082682,-0.155029 z M 3.7689202,7.1193407 V 8.6024545 H 4.5078931 V 7.1193407 Z"
                            class="lightbulbOutline"/>
                        <path
                            d="m 5.2520326,10.643674 q 0,-0.124024 -0.08268,-0.15503 -0.08268,-0.02584 -0.180868,-0.02584 h -0.108521 v -0.37207 h 0.108521 q 0.09819,0 0.180867,-0.03101 0.08268,-0.02584 0.08268,-0.1550295 0,-0.124024 -0.07752,-0.155029 -0.07751,-0.03101 -0.175699,-0.03101 h -0.118856 v -0.372061 h -1.483113 v 0.372071 h -0.108521 q -0.09818,0 -0.180867,0.02584 -0.08268,0.03101 -0.08268,0.160197 0,0.1240235 0.07752,0.1550295 0.07752,0.03101 0.1757,0.03101 h 0.118855 v 0.37207 h -0.06718 q -0.05168,0 -0.108521,0 -0.05168,0.0052 -0.09818,0.02067 -0.04134,0.02067 -0.07235,0.05684 -0.02584,0.03617 -0.02584,0.103353 0,0.124023 0.07752,0.155029 0.07752,0.03101 0.1757,0.03101 h 0.118855 l 0.37207,0.37207 h 0.738973 l 0.37207,-0.37207 h 0.108521 q 0.09819,0 0.180867,-0.03101 0.08268,-0.02584 0.08268,-0.155029 z"
                            class="lightbulbScrew"/>
                    </g>
                    <g id="bedroom_lampLightbulbColour" class="lightbulbColor">
                        <path
                            transform="translate(-0.40753672,-1.0138529)"
                            d="m 5.2520374,8.6024545 q 0,-0.2377121 0.051677,-0.4392499 Q 5.3553904,7.9564989 5.4535755,7.780799 5.5517605,7.5999315 5.6861194,7.4397346 5.8256458,7.27437 5.996178,7.1193407 6.3320748,6.8092821 6.6059599,6.4837206 6.879845,6.1581591 7.0710478,5.8015917 7.2674182,5.4398567 7.3707711,5.0316129 q 0.108521,-0.4082438 0.108521,-0.883667 0,-0.6924641 -0.2635503,-1.302246 Q 6.9573598,2.235918 6.5026072,1.7863331 6.0478547,1.3315805 5.4380728,1.0680307 4.8334584,0.80448092 4.1409944,0.80448092 q -0.465088,0 -0.894002,0.1188558 -0.423747,0.11885578 -0.795817,0.33589678 -0.372071,0.217041 -0.676962,0.5219319 -0.30489,0.304891 -0.521931,0.6769613 -0.217041,0.3720703 -0.335897,0.8009846 -0.118856,0.4289144 -0.118856,0.8888346 0,0.4702556 0.103353,0.8784994 0.10852,0.4082438 0.299723,0.7699788 0.196371,0.361735 0.470256,0.6872965 0.273885,0.3255615 0.609782,0.6356201 0.170532,0.1550293 0.30489,0.3203939 0.139527,0.1601969 0.232544,0.3410644 0.09819,0.1756999 0.149862,0.3824056 0.05684,0.2015378 0.05684,0.4392499 h 0.37207 V 7.1193407 q -0.149861,0 -0.263549,-0.1085205 -0.108521,-0.1085205 -0.108521,-0.2635498 0,-0.1550293 0.108521,-0.2635498 0.10852,-0.1085205 0.263549,-0.1085205 0.15503,0 0.26355,0.1085205 0.108521,0.1085205 0.108521,0.2635498 h 0.738973 q 0,-0.1498616 0.10852,-0.2583821 0.108521,-0.1136882 0.26355,-0.1136882 0.155029,0 0.26355,0.1085205 0.10852,0.1085205 0.10852,0.2635498 0,0.1550293 -0.113688,0.2635498 -0.10852,0.1085205 -0.258382,0.1085205 v 1.4831138 z"
                        />
                        <rect
                            width="0.7389729"
                            height="1.4831138"
                            x="3.3613834"
                            y="6.1054878" />
                    </g>
                </g>
            </g>
            <text
                text-anchor="middle"
                x="339"
                y="450"
                id="bedroomTemperature"></text>
            <text
                text-anchor="middle"
                x="339"
                y="470"
                id="bedroomIcon"></text>
        </g>
        <g>
            <rect
                class="room"
                id="svg_hall"
                width="115"
                height="300"
                x="224"
                y="0" />
            <text
                text-anchor="middle"
                x="281.5"
                y="20">Hall</text>
            <g transform="translate(273.5,110)" id="hallLightbulb" style="visibility:hidden">
                <g class="matrixTransform">
                    <g class="shift">
                        <path
                            d="m 4.1409905,0.0603403 q 0.5632731,0 1.085205,0.1498616 0.521932,0.144694 0.9715169,0.4134115 0.4547526,0.2635498 0.8268229,0.6356201 0.3772376,0.3720703 0.6407876,0.8268229 0.268718,0.4547525 0.413412,0.9766845 0.144694,0.5219319 0.144694,1.085205 0,0.8319906 -0.294556,1.5761312 Q 7.6343169,6.46305 7.086547,7.0883348 6.941853,7.2536994 6.7816561,7.3983934 6.6266268,7.5379198 6.4715975,7.6877814 6.3682446,7.7859667 6.2803947,7.8893195 q -0.08785,0.098185 -0.1498616,0.2067057 -0.062012,0.1085206 -0.098185,0.232544 -0.036174,0.1240233 -0.036174,0.2738853 v 2.0412185 q 0,0.170532 -0.062012,0.325561 -0.056844,0.160197 -0.1653646,0.284221 Q 5.6654447,11.377478 5.515583,11.46016 5.370889,11.54284 5.2003568,11.563513 L 4.8179517,11.945919 H 3.4588616 L 3.076456,11.563513 Q 2.9059238,11.542843 2.7560621,11.46016 2.6113681,11.377478 2.5028476,11.253455 2.3994948,11.129431 2.337483,10.969234 2.280639,10.814205 2.280639,10.643673 V 8.6024545 q 0,-0.149862 -0.036173,-0.2738853 Q 2.208292,8.2045458 2.1462802,8.0960252 2.0842685,7.9875047 1.9964186,7.8893195 1.9137363,7.7859667 1.8103834,7.6877814 1.6553541,7.5379198 1.4951572,7.3983934 1.3401279,7.2536994 1.1954339,7.0883348 0.6476637,6.46305 0.3479405,5.7240771 0.0533848,4.9799365 0.0533848,4.1479459 q 0,-0.5632731 0.144694,-1.085205 Q 0.3479405,2.5408089 0.6114902,2.0860564 0.8802077,1.6313038 1.252278,1.2592335 1.6243483,0.8871632 2.0791009,0.6236134 2.5338535,0.3548959 3.0557854,0.2102019 3.5777174,0.0603403 4.1409905,0.0603403 Z m 1.1110432,8.5421142 q 0,-0.2377118 0.051677,-0.4392499 Q 5.3553866,7.9564989 5.4535718,7.780799 5.551757,7.5999315 5.6861157,7.4397346 5.8256421,7.27437 5.9961743,7.1193407 6.3320711,6.8092821 6.6059562,6.4837206 6.8798413,6.1581591 7.0710441,5.8015917 7.2674145,5.4398567 7.3707674,5.0316129 7.4792879,4.6233691 7.4792879,4.1479459 q 0,-0.6924641 -0.2635498,-1.302246 Q 6.9573559,2.235918 6.5026034,1.7863331 6.0478508,1.3315805 5.4380689,1.0680307 4.8334546,0.8044809 4.1409905,0.8044809 q -0.4650879,0 -0.8940023,0.1188558 Q 2.8232415,1.0421925 2.4511712,1.2592335 2.0791009,1.4762745 1.7742099,1.7811654 1.469319,2.0860564 1.252278,2.4581267 1.035237,2.830197 0.9163812,3.2591113 0.7975254,3.6880257 0.7975254,4.1479459 q 0,0.4702556 0.1033529,0.8784994 0.1085205,0.4082438 0.2997233,0.7699788 0.1963704,0.361735 0.4702555,0.6872965 0.2738851,0.3255615 0.6097819,0.6356201 0.1705322,0.1550293 0.3048909,0.3203939 0.1395264,0.1601969 0.2325439,0.3410644 0.098185,0.1756999 0.1498617,0.3824056 0.056844,0.2015381 0.056844,0.4392499 H 3.3968499 V 7.1193407 q -0.1498617,0 -0.2635498,-0.1085205 -0.1085205,-0.1085205 -0.1085205,-0.2635498 0,-0.1550293 0.1085205,-0.2635498 0.1085205,-0.1085205 0.2635498,-0.1085205 0.1550293,0 0.2635498,0.1085205 0.1085205,0.1085205 0.1085205,0.2635498 h 0.7389729 q 0,-0.1498616 0.1085205,-0.2583821 0.1085205,-0.1136882 0.2635498,-0.1136882 0.1550293,0 0.2635498,0.1085205 0.1085205,0.1085205 0.1085205,0.2635498 0,0.1550293 -0.1136881,0.2635498 -0.1085205,0.1085205 -0.2583822,0.1085205 v 1.4831138 z m 0,2.0412185 q 0,-0.124024 -0.082682,-0.15503 -0.082682,-0.02584 -0.1808675,-0.02584 H 4.8799634 v -0.37207 h 0.1085205 q 0.098185,0 0.1808675,-0.03101 0.082682,-0.02584 0.082682,-0.1550285 0,-0.124024 -0.077515,-0.155029 -0.077515,-0.03101 -0.1756999,-0.03101 H 4.8799634 V 9.3465945 H 3.3968499 v 0.372071 H 3.2883294 q -0.098185,0 -0.1808675,0.02584 -0.082682,0.03101 -0.082682,0.160197 0,0.1240225 0.077515,0.1550285 0.077515,0.03101 0.1756999,0.03101 h 0.1188551 v 0.37207 h -0.067179 q -0.051676,0 -0.1085205,0 -0.051676,0.0052 -0.098185,0.02067 -0.041341,0.02067 -0.072347,0.05684 -0.025838,0.03617 -0.025838,0.103353 0,0.124023 0.077515,0.155029 0.077515,0.03101 0.1756999,0.03101 h 0.1188546 l 0.3720703,0.37207 h 0.7389729 l 0.3720703,-0.37207 h 0.1085205 q 0.098185,0 0.1808675,-0.03101 0.082682,-0.02584 0.082682,-0.155029 z M 3.7689202,7.1193407 V 8.6024545 H 4.5078931 V 7.1193407 Z"
                            class="lightbulbOutline"/>
                        <path
                            d="m 5.2520326,10.643674 q 0,-0.124024 -0.08268,-0.15503 -0.08268,-0.02584 -0.180868,-0.02584 h -0.108521 v -0.37207 h 0.108521 q 0.09819,0 0.180867,-0.03101 0.08268,-0.02584 0.08268,-0.1550295 0,-0.124024 -0.07752,-0.155029 -0.07751,-0.03101 -0.175699,-0.03101 h -0.118856 v -0.372061 h -1.483113 v 0.372071 h -0.108521 q -0.09818,0 -0.180867,0.02584 -0.08268,0.03101 -0.08268,0.160197 0,0.1240235 0.07752,0.1550295 0.07752,0.03101 0.1757,0.03101 h 0.118855 v 0.37207 h -0.06718 q -0.05168,0 -0.108521,0 -0.05168,0.0052 -0.09818,0.02067 -0.04134,0.02067 -0.07235,0.05684 -0.02584,0.03617 -0.02584,0.103353 0,0.124023 0.07752,0.155029 0.07752,0.03101 0.1757,0.03101 h 0.118855 l 0.37207,0.37207 h 0.738973 l 0.37207,-0.37207 h 0.108521 q 0.09819,0 0.180867,-0.03101 0.08268,-0.02584 0.08268,-0.155029 z"
                            class="lightbulbScrew"/>
                    </g>
                    <g id="hallLightbulbColour" class="lightbulbColor">
                        <path
                            transform="translate(-0.40753672,-1.0138529)"
                            d="m 5.2520374,8.6024545 q 0,-0.2377121 0.051677,-0.4392499 Q 5.3553904,7.9564989 5.4535755,7.780799 5.5517605,7.5999315 5.6861194,7.4397346 5.8256458,7.27437 5.996178,7.1193407 6.3320748,6.8092821 6.6059599,6.4837206 6.879845,6.1581591 7.0710478,5.8015917 7.2674182,5.4398567 7.3707711,5.0316129 q 0.108521,-0.4082438 0.108521,-0.883667 0,-0.6924641 -0.2635503,-1.302246 Q 6.9573598,2.235918 6.5026072,1.7863331 6.0478547,1.3315805 5.4380728,1.0680307 4.8334584,0.80448092 4.1409944,0.80448092 q -0.465088,0 -0.894002,0.1188558 -0.423747,0.11885578 -0.795817,0.33589678 -0.372071,0.217041 -0.676962,0.5219319 -0.30489,0.304891 -0.521931,0.6769613 -0.217041,0.3720703 -0.335897,0.8009846 -0.118856,0.4289144 -0.118856,0.8888346 0,0.4702556 0.103353,0.8784994 0.10852,0.4082438 0.299723,0.7699788 0.196371,0.361735 0.470256,0.6872965 0.273885,0.3255615 0.609782,0.6356201 0.170532,0.1550293 0.30489,0.3203939 0.139527,0.1601969 0.232544,0.3410644 0.09819,0.1756999 0.149862,0.3824056 0.05684,0.2015378 0.05684,0.4392499 h 0.37207 V 7.1193407 q -0.149861,0 -0.263549,-0.1085205 -0.108521,-0.1085205 -0.108521,-0.2635498 0,-0.1550293 0.108521,-0.2635498 0.10852,-0.1085205 0.263549,-0.1085205 0.15503,0 0.26355,0.1085205 0.108521,0.1085205 0.108521,0.2635498 h 0.738973 q 0,-0.1498616 0.10852,-0.2583821 0.108521,-0.1136882 0.26355,-0.1136882 0.155029,0 0.26355,0.1085205 0.10852,0.1085205 0.10852,0.2635498 0,0.1550293 -0.113688,0.2635498 -0.10852,0.1085205 -0.258382,0.1085205 v 1.4831138 z"
                        />
                        <rect
                            width="0.7389729"
                            height="1.4831138"
                            x="3.3613834"
                            y="6.1054878" />
                    </g>
                </g>
            </g>
            <text 
                text-anchor="middle"
                x="281.5"
                y="150"
                id="hallTemperature"></text>
            <text
                text-anchor="middle"
                x="281.5"
                y="170"
                id="hallIcon"></text>
        </g>
        <g>
            <rect
                class="room"
                id="svg_closet"
                width="115"
                height="64"
                x="339"
                y="64" />
            <text
                text-anchor="middle"
                x="396.5"
                y="84">Closet</text>
        </g>
        <g>
            <path
                class="room"
                d="M454 0 H 627 V 200 H 339 v -75 h 115 z"
                id="svg_study"
                nodetypes="ccccccc" />
            <text
                text-anchor="middle"
                x="540"
                y="20">Study</text>
            <g transform="translate(532,60)" id="studyLightbulb" style="visibility:hidden">
                <g class="matrixTransform">
                    <g class="shift">
                        <path
                            d="m 4.1409905,0.0603403 q 0.5632731,0 1.085205,0.1498616 0.521932,0.144694 0.9715169,0.4134115 0.4547526,0.2635498 0.8268229,0.6356201 0.3772376,0.3720703 0.6407876,0.8268229 0.268718,0.4547525 0.413412,0.9766845 0.144694,0.5219319 0.144694,1.085205 0,0.8319906 -0.294556,1.5761312 Q 7.6343169,6.46305 7.086547,7.0883348 6.941853,7.2536994 6.7816561,7.3983934 6.6266268,7.5379198 6.4715975,7.6877814 6.3682446,7.7859667 6.2803947,7.8893195 q -0.08785,0.098185 -0.1498616,0.2067057 -0.062012,0.1085206 -0.098185,0.232544 -0.036174,0.1240233 -0.036174,0.2738853 v 2.0412185 q 0,0.170532 -0.062012,0.325561 -0.056844,0.160197 -0.1653646,0.284221 Q 5.6654447,11.377478 5.515583,11.46016 5.370889,11.54284 5.2003568,11.563513 L 4.8179517,11.945919 H 3.4588616 L 3.076456,11.563513 Q 2.9059238,11.542843 2.7560621,11.46016 2.6113681,11.377478 2.5028476,11.253455 2.3994948,11.129431 2.337483,10.969234 2.280639,10.814205 2.280639,10.643673 V 8.6024545 q 0,-0.149862 -0.036173,-0.2738853 Q 2.208292,8.2045458 2.1462802,8.0960252 2.0842685,7.9875047 1.9964186,7.8893195 1.9137363,7.7859667 1.8103834,7.6877814 1.6553541,7.5379198 1.4951572,7.3983934 1.3401279,7.2536994 1.1954339,7.0883348 0.6476637,6.46305 0.3479405,5.7240771 0.0533848,4.9799365 0.0533848,4.1479459 q 0,-0.5632731 0.144694,-1.085205 Q 0.3479405,2.5408089 0.6114902,2.0860564 0.8802077,1.6313038 1.252278,1.2592335 1.6243483,0.8871632 2.0791009,0.6236134 2.5338535,0.3548959 3.0557854,0.2102019 3.5777174,0.0603403 4.1409905,0.0603403 Z m 1.1110432,8.5421142 q 0,-0.2377118 0.051677,-0.4392499 Q 5.3553866,7.9564989 5.4535718,7.780799 5.551757,7.5999315 5.6861157,7.4397346 5.8256421,7.27437 5.9961743,7.1193407 6.3320711,6.8092821 6.6059562,6.4837206 6.8798413,6.1581591 7.0710441,5.8015917 7.2674145,5.4398567 7.3707674,5.0316129 7.4792879,4.6233691 7.4792879,4.1479459 q 0,-0.6924641 -0.2635498,-1.302246 Q 6.9573559,2.235918 6.5026034,1.7863331 6.0478508,1.3315805 5.4380689,1.0680307 4.8334546,0.8044809 4.1409905,0.8044809 q -0.4650879,0 -0.8940023,0.1188558 Q 2.8232415,1.0421925 2.4511712,1.2592335 2.0791009,1.4762745 1.7742099,1.7811654 1.469319,2.0860564 1.252278,2.4581267 1.035237,2.830197 0.9163812,3.2591113 0.7975254,3.6880257 0.7975254,4.1479459 q 0,0.4702556 0.1033529,0.8784994 0.1085205,0.4082438 0.2997233,0.7699788 0.1963704,0.361735 0.4702555,0.6872965 0.2738851,0.3255615 0.6097819,0.6356201 0.1705322,0.1550293 0.3048909,0.3203939 0.1395264,0.1601969 0.2325439,0.3410644 0.098185,0.1756999 0.1498617,0.3824056 0.056844,0.2015381 0.056844,0.4392499 H 3.3968499 V 7.1193407 q -0.1498617,0 -0.2635498,-0.1085205 -0.1085205,-0.1085205 -0.1085205,-0.2635498 0,-0.1550293 0.1085205,-0.2635498 0.1085205,-0.1085205 0.2635498,-0.1085205 0.1550293,0 0.2635498,0.1085205 0.1085205,0.1085205 0.1085205,0.2635498 h 0.7389729 q 0,-0.1498616 0.1085205,-0.2583821 0.1085205,-0.1136882 0.2635498,-0.1136882 0.1550293,0 0.2635498,0.1085205 0.1085205,0.1085205 0.1085205,0.2635498 0,0.1550293 -0.1136881,0.2635498 -0.1085205,0.1085205 -0.2583822,0.1085205 v 1.4831138 z m 0,2.0412185 q 0,-0.124024 -0.082682,-0.15503 -0.082682,-0.02584 -0.1808675,-0.02584 H 4.8799634 v -0.37207 h 0.1085205 q 0.098185,0 0.1808675,-0.03101 0.082682,-0.02584 0.082682,-0.1550285 0,-0.124024 -0.077515,-0.155029 -0.077515,-0.03101 -0.1756999,-0.03101 H 4.8799634 V 9.3465945 H 3.3968499 v 0.372071 H 3.2883294 q -0.098185,0 -0.1808675,0.02584 -0.082682,0.03101 -0.082682,0.160197 0,0.1240225 0.077515,0.1550285 0.077515,0.03101 0.1756999,0.03101 h 0.1188551 v 0.37207 h -0.067179 q -0.051676,0 -0.1085205,0 -0.051676,0.0052 -0.098185,0.02067 -0.041341,0.02067 -0.072347,0.05684 -0.025838,0.03617 -0.025838,0.103353 0,0.124023 0.077515,0.155029 0.077515,0.03101 0.1756999,0.03101 h 0.1188546 l 0.3720703,0.37207 h 0.7389729 l 0.3720703,-0.37207 h 0.1085205 q 0.098185,0 0.1808675,-0.03101 0.082682,-0.02584 0.082682,-0.155029 z M 3.7689202,7.1193407 V 8.6024545 H 4.5078931 V 7.1193407 Z"
                            class="lightbulbOutline"/>
                        <path
                            d="m 5.2520326,10.643674 q 0,-0.124024 -0.08268,-0.15503 -0.08268,-0.02584 -0.180868,-0.02584 h -0.108521 v -0.37207 h 0.108521 q 0.09819,0 0.180867,-0.03101 0.08268,-0.02584 0.08268,-0.1550295 0,-0.124024 -0.07752,-0.155029 -0.07751,-0.03101 -0.175699,-0.03101 h -0.118856 v -0.372061 h -1.483113 v 0.372071 h -0.108521 q -0.09818,0 -0.180867,0.02584 -0.08268,0.03101 -0.08268,0.160197 0,0.1240235 0.07752,0.1550295 0.07752,0.03101 0.1757,0.03101 h 0.118855 v 0.37207 h -0.06718 q -0.05168,0 -0.108521,0 -0.05168,0.0052 -0.09818,0.02067 -0.04134,0.02067 -0.07235,0.05684 -0.02584,0.03617 -0.02584,0.103353 0,0.124023 0.07752,0.155029 0.07752,0.03101 0.1757,0.03101 h 0.118855 l 0.37207,0.37207 h 0.738973 l 0.37207,-0.37207 h 0.108521 q 0.09819,0 0.180867,-0.03101 0.08268,-0.02584 0.08268,-0.155029 z"
                            class="lightbulbScrew"/>
                    </g>
                    <g id="studyLightbulbColour" class="lightbulbColor">
                        <path
                            transform="translate(-0.40753672,-1.0138529)"
                            d="m 5.2520374,8.6024545 q 0,-0.2377121 0.051677,-0.4392499 Q 5.3553904,7.9564989 5.4535755,7.780799 5.5517605,7.5999315 5.6861194,7.4397346 5.8256458,7.27437 5.996178,7.1193407 6.3320748,6.8092821 6.6059599,6.4837206 6.879845,6.1581591 7.0710478,5.8015917 7.2674182,5.4398567 7.3707711,5.0316129 q 0.108521,-0.4082438 0.108521,-0.883667 0,-0.6924641 -0.2635503,-1.302246 Q 6.9573598,2.235918 6.5026072,1.7863331 6.0478547,1.3315805 5.4380728,1.0680307 4.8334584,0.80448092 4.1409944,0.80448092 q -0.465088,0 -0.894002,0.1188558 -0.423747,0.11885578 -0.795817,0.33589678 -0.372071,0.217041 -0.676962,0.5219319 -0.30489,0.304891 -0.521931,0.6769613 -0.217041,0.3720703 -0.335897,0.8009846 -0.118856,0.4289144 -0.118856,0.8888346 0,0.4702556 0.103353,0.8784994 0.10852,0.4082438 0.299723,0.7699788 0.196371,0.361735 0.470256,0.6872965 0.273885,0.3255615 0.609782,0.6356201 0.170532,0.1550293 0.30489,0.3203939 0.139527,0.1601969 0.232544,0.3410644 0.09819,0.1756999 0.149862,0.3824056 0.05684,0.2015378 0.05684,0.4392499 h 0.37207 V 7.1193407 q -0.149861,0 -0.263549,-0.1085205 -0.108521,-0.1085205 -0.108521,-0.2635498 0,-0.1550293 0.108521,-0.2635498 0.10852,-0.1085205 0.263549,-0.1085205 0.15503,0 0.26355,0.1085205 0.108521,0.1085205 0.108521,0.2635498 h 0.738973 q 0,-0.1498616 0.10852,-0.2583821 0.108521,-0.1136882 0.26355,-0.1136882 0.155029,0 0.26355,0.1085205 0.10852,0.1085205 0.10852,0.2635498 0,0.1550293 -0.113688,0.2635498 -0.10852,0.1085205 -0.258382,0.1085205 v 1.4831138 z"
                        />
                        <rect
                            width="0.7389729"
                            height="1.4831138"
                            x="3.3613834"
                            y="6.1054878" />
                    </g>
                </g>
            </g>
            <text
                text-anchor="middle"
                x="540"
                y="100"
                id="studyTemperature"></text>
            <text
                text-anchor="middle"
                x="540"
                y="120"
                id="studyIcon"></text>
        </g>
    </g>
</svg>